<svg width="1440" height="300" viewBox="0 0 1440 300" fill="none" xmlns="http://www.w3.org/2000/svg">
<path d="M-48 180C188 34.7999 310.5 49.1416 428.5 96.9999C546.5 144.858 648.5 144 773.5 96.9999C896.565 50.7273 1053.5 -7 1215.5 62.5C1351.5 120.846 1415.5 96.9999 1513 28" stroke="#D778DB" stroke-width="60"/>
<path d="M-47.5 229.5C188.5 84.2999 311 98.6416 429 146.5C547 194.358 649 193.5 774 146.5C897.065 100.227 1054 42.5 1216 112C1352 170.346 1416 146.5 1513.5 77.5" stroke="#C55AC9" stroke-width="60"/>
<path d="M-47.5 273.5C188.5 128.3 311 142.642 429 190.5C547 238.358 649 237.5 774 190.5C897.065 144.227 1054 86.5 1216 156C1352 214.346 1416 190.5 1513.5 121.5" stroke="#B143B4" stroke-width="60"/>
</svg>
